<svg width="48" height="18" viewBox="0 0 48 18" fill="none" xmlns="http://www.w3.org/2000/svg"><g clip-path="url(#a)"><path d="M14.974 0H9.026C4.041 0 0 4.03 0 9s4.041 9 9.026 9h5.948C19.959 18 24 13.97 24 9s-4.041-9-9.026-9Zm24 0h-5.948C28.041 0 24 4.03 24 9s4.041 9 9.026 9h5.948C43.959 18 48 13.97 48 9s-4.041-9-9.026-9Z" fill="#BCD9EA"/><path d="M24.15 15.035c3.343 0 6.053-2.702 6.053-6.035s-2.71-6.035-6.052-6.035c-3.343 0-6.053 2.702-6.053 6.035s2.71 6.035 6.053 6.035Z" fill="#fff"/><path d="M10.258 5.191a.92.92 0 0 0 .84-.573.913.913 0 0 0-.677-1.24.92.92 0 0 0-.939.392.913.913 0 0 0 .777 1.421Zm2.424 6.078a.533.533 0 0 0-.361.391v.02a2.697 2.697 0 0 1-1.753 1.712c-.355.11-.73.141-1.097.092a2.876 2.876 0 0 1-1.459-.703l-.043-.026a1.876 1.876 0 0 1-.114-.119l-.101-.105-.032-.04a2.757 2.757 0 0 1-.491-.938 2.886 2.886 0 0 1-.094-1.206 2.739 2.739 0 0 1 1.391-2.045l.016-.014a.547.547 0 0 0-.12-1.04.51.51 0 0 0-.307.049 3.861 3.861 0 0 0-2.064 2.909 3.947 3.947 0 0 0 .143 1.745 3.71 3.71 0 0 0 1.792 2.223 3.734 3.734 0 0 0 2.843.301 3.817 3.817 0 0 0 2.502-2.528.554.554 0 0 0-.094-.502.522.522 0 0 0-.557-.176Z" fill="#103C60"/><path d="M17.03 12.026a.418.418 0 0 0-.562-.15l-.612.342-1.551-2.334a.556.556 0 0 0-.474-.286h-2.917v-.924h2.02a.584.584 0 0 0 .52-.579.581.581 0 0 0-.52-.578h-2.02V6.315a.653.653 0 0 0-.655-.653.656.656 0 0 0-.656.653v3.804a.67.67 0 0 0 .734.654h3.384l1.475 2.215a.485.485 0 0 0 .393.22h.013a.409.409 0 0 0 .162-.028h.056l1.055-.588a.404.404 0 0 0 .154-.566Zm23.577 2.396a.098.098 0 0 1-.098.099h-8.12a.099.099 0 0 1-.099-.099v-2.956a.098.098 0 0 1 .099-.098h8.12a.097.097 0 0 1 .092.06.095.095 0 0 1 .006.038v2.956Zm-5.276-1.647h.801a.088.088 0 0 0 .086-.087v-.799a.087.087 0 0 0-.086-.087h-.8a.088.088 0 0 0-.088.087v.8a.087.087 0 0 0 .087.086Zm-1.521.287h-.802a.084.084 0 0 0-.06.026.084.084 0 0 0-.025.061v.799a.085.085 0 0 0 .085.085h.802a.084.084 0 0 0 .061-.024.085.085 0 0 0 .026-.061v-.799a.083.083 0 0 0-.025-.062.086.086 0 0 0-.062-.025Zm0-.287h.8a.088.088 0 0 0 .088-.087v-.799a.087.087 0 0 0-.087-.087h-.801a.088.088 0 0 0-.088.087v.8a.087.087 0 0 0 .088.086Zm3.036 0h.801a.088.088 0 0 0 .088-.087v-.799a.087.087 0 0 0-.088-.087h-.8a.088.088 0 0 0-.086.087v.8a.087.087 0 0 0 .085.086Zm1.52 0h.8a.088.088 0 0 0 .086-.087v-.799a.087.087 0 0 0-.085-.087h-.79a.086.086 0 0 0-.08.054.086.086 0 0 0-.006.033v.8a.086.086 0 0 0 .053.08c.01.004.021.006.033.006h-.012Zm.01.287h-.8a.084.084 0 0 0-.062.026.084.084 0 0 0-.024.061v.799a.085.085 0 0 0 .085.085h.802a.084.084 0 0 0 .061-.024.084.084 0 0 0 .026-.061v-.799a.086.086 0 0 0-.025-.062.084.084 0 0 0-.062-.025Zm-3.036 0h-.801a.084.084 0 0 0-.061.026.084.084 0 0 0-.024.061v.799a.082.082 0 0 0 .024.06.083.083 0 0 0 .061.025h.801a.084.084 0 0 0 .062-.024.085.085 0 0 0 .026-.061v-.799a.085.085 0 0 0-.088-.087Zm4.556 0h-.801a.084.084 0 0 0-.061.026.084.084 0 0 0-.024.061v.799a.085.085 0 0 0 .085.085h.801a.087.087 0 0 0 .087-.085v-.799a.087.087 0 0 0-.087-.087Zm-3.036 0h-.802a.085.085 0 0 0-.087.087v.799a.085.085 0 0 0 .087.085h.802a.088.088 0 0 0 .087-.085v-.799a.087.087 0 0 0-.087-.087Zm-4.361-2.198a.079.079 0 0 0 .019.06.08.08 0 0 0 .055.028h7.774a.083.083 0 0 0 .074-.088V3.567a.081.081 0 0 0-.043-.078.082.082 0 0 0-.03-.009h-7.786a.08.08 0 0 0-.074.087l.011 7.297Zm1.052-1.293V4.648a.068.068 0 0 1 .02-.05.07.07 0 0 1 .048-.022h5.727a.067.067 0 0 1 .065.072v4.923a.067.067 0 0 1-.039.065.068.068 0 0 1-.026.007h-5.738a.07.07 0 0 1-.068-.072h.011Zm12.26 8.33v-.988h-.356v-.204h.956v.204h-.357v.989h-.242Zm.755 0V16.71h.363l.225.821.224-.82h.364v1.192h-.224v-.935l-.254.935h-.225l-.237-.944v.944h-.236ZM26.603 7.858l-4.816-2.5c0 1.03.117 1.692.824 2.06l2.42 1.254 1.572-.814Zm.631.327-1.571.814-3.03 1.567c-.689.373-.846 1.183-.846 2.072l4.374-2.27c.967-.525 1.073-1.167 1.073-2.19v.007Z" fill="#103C60"/></g><defs><clipPath id="a"><path fill="#fff" d="M0 0h48v18H0z"/></clipPath></defs></svg>